<?xml version="1.0" encoding="UTF-8"?><svg xmlns="http://www.w3.org/2000/svg" viewBox="0 0 400 200.5"><defs><style>.f{fill:#303846;}.g{fill:#e84b39;}.h{fill:none;}</style></defs><g id="a"/><g id="b"><g id="c"><rect id="d" class="h" y=".25" width="400" height="200"/><g id="e"><g><path class="g" d="M373.3186,49.2874c6.0584,32.5803-15.4402,63.8967-48.0206,69.9551l12.1277,21.0083h-46.19l-34.6398-59.9958h57.7402c11.0381,0,19.995-8.9569,19.995-20.0058s-8.9569-19.995-19.995-19.995h-80.8297L210.4061,.2534h103.9302c28.9082,0,53.7085,20.616,58.9824,49.0339Z"/><polygon class="g" points="348.976 160.2458 372.0655 200.2466 325.8756 200.2466 302.786 160.2458 348.976 160.2458"/><polygon class="f" points="164.2161 .2534 279.6965 200.2466 233.5065 200.2466 118.037 .2534 164.2161 .2534"/><polygon class="f" points="71.8471 .2534 187.3166 200.2466 141.1266 200.2466 25.6571 .2534 71.8471 .2534"/></g></g></g></g></svg>