<svg xmlns="http://www.w3.org/2000/svg" viewBox="0 0 400 200.5"><defs><style>.f{fill:#303846}.g{fill:#e84b39}</style></defs><g id="b"><g id="c"><path id="d" d="M0 .25h400v200H0z" style="fill:none"/><g id="e"><path d="M373.32 49.29a60 60 0 0 1-48.02 69.95l12.13 21.01h-46.2l-34.63-60h57.74a20 20 0 0 0 0-40H233.5l-23.1-40h103.93c28.9 0 53.7 20.62 58.98 49.04ZM348.98 160.25l23.09 40h-46.19l-23.09-40h46.19z" class="g"/><path d="m164.22.25 115.48 200h-46.19L118.04.25h46.18zM71.85.25l115.47 200h-46.19L25.66.25h46.19z" class="f"/></g></g></g></svg>
