<svg xmlns="http://www.w3.org/2000/svg" viewBox="0 0 1000 316.5601"><defs><style>.cls-1{fill:#303846;}.cls-2{fill:#e84b39;}</style></defs><g id="Layer_2" data-name="Layer 2"><g id="fill"><polygon id="wrs" class="cls-1" points="1000 43.99 842.63 316.56 685.26 316.56 631.97 224.27 578.69 316.56 527.89 316.56 606.57 180.28 553.29 87.98 446.71 87.98 314.74 316.56 157.37 316.56 104.08 224.27 50.8 316.56 0 316.56 78.69 180.28 78.69 180.27 0 43.99 50.8 43.99 104.08 136.28 182.77 0 233.56 0 208.17 43.99 314.74 43.99 355.33 114.29 329.93 158.28 289.34 87.98 182.77 87.98 129.48 180.28 182.77 272.57 289.34 272.57 421.31 43.99 578.69 43.99 631.97 136.28 710.66 0 761.45 0 736.06 43.99 842.63 43.99 883.22 114.29 857.82 158.28 817.23 87.98 710.66 87.98 657.37 180.28 710.66 272.57 817.23 272.57 949.2 43.99 1000 43.99"/><g id="mutants"><polygon id="mid" class="cls-2" points="527.89 272.57 502.49 316.56 421.31 316.56 380.73 246.26 406.12 202.27 446.71 272.57 527.89 272.57"/><polygon id="mid_small" data-name="mid small" class="cls-2" points="472.477 316.56 421.677 316.56 381.097 246.26 406.487 202.27 472.477 316.56"/></g></g></g></svg>