<svg xmlns="http://www.w3.org/2000/svg" viewBox="0 0 1000 316.56"><path fill="#303846" d="M1000 43.99 842.63 316.56H685.26l-53.29-92.29-53.28 92.29h-50.8l78.68-136.28-53.28-92.3H446.71L314.74 316.56H157.37l-53.29-92.29-53.28 92.29H0l78.69-136.28v-.01L0 43.99h50.8l53.28 92.29L182.77 0h50.79l-25.39 43.99h106.57l40.59 70.3-25.4 43.99-40.59-70.3H182.77l-53.29 92.3 53.29 92.29h106.57L421.31 43.99h157.38l53.28 92.29L710.66 0h50.79l-25.39 43.99h106.57l40.59 70.3-25.4 43.99-40.59-70.3H710.66l-53.29 92.3 53.29 92.29h106.57L949.2 43.99h50.8z"/><g fill="#e84b39"><path d="m527.89 272.57-25.4 43.99h-81.18l-40.58-70.3 25.39-43.99 40.59 70.3h81.18z"/><path d="M472.48 316.56h-50.8l-40.58-70.3 25.39-43.99 65.99 114.29z"/></g></svg>
